<svg id="visual" viewBox="0 0 900 600" width="900" height="600" xmlns="http://www.w3.org/2000/svg" xmlns:xlink="http://www.w3.org/1999/xlink" version="1.1"><rect x="0" y="0" width="900" height="600" fill="#001220"></rect><defs><linearGradient id="grad1_0" x1="33.3%" y1="0%" x2="100%" y2="100%"><stop offset="20%" stop-color="#fbae3c" stop-opacity="1"></stop><stop offset="80%" stop-color="#fbae3c" stop-opacity="1"></stop></linearGradient></defs><defs><linearGradient id="grad1_1" x1="33.3%" y1="0%" x2="100%" y2="100%"><stop offset="20%" stop-color="#fbae3c" stop-opacity="1"></stop><stop offset="80%" stop-color="#e1685e" stop-opacity="1"></stop></linearGradient></defs><defs><linearGradient id="grad1_2" x1="33.3%" y1="0%" x2="100%" y2="100%"><stop offset="20%" stop-color="#96446e" stop-opacity="1"></stop><stop offset="80%" stop-color="#e1685e" stop-opacity="1"></stop></linearGradient></defs><defs><linearGradient id="grad1_3" x1="33.3%" y1="0%" x2="100%" y2="100%"><stop offset="20%" stop-color="#96446e" stop-opacity="1"></stop><stop offset="80%" stop-color="#3d3056" stop-opacity="1"></stop></linearGradient></defs><defs><linearGradient id="grad1_4" x1="33.3%" y1="0%" x2="100%" y2="100%"><stop offset="20%" stop-color="#001220" stop-opacity="1"></stop><stop offset="80%" stop-color="#3d3056" stop-opacity="1"></stop></linearGradient></defs><defs><linearGradient id="grad2_0" x1="0%" y1="0%" x2="66.7%" y2="100%"><stop offset="20%" stop-color="#fbae3c" stop-opacity="1"></stop><stop offset="80%" stop-color="#fbae3c" stop-opacity="1"></stop></linearGradient></defs><defs><linearGradient id="grad2_1" x1="0%" y1="0%" x2="66.7%" y2="100%"><stop offset="20%" stop-color="#e1685e" stop-opacity="1"></stop><stop offset="80%" stop-color="#fbae3c" stop-opacity="1"></stop></linearGradient></defs><defs><linearGradient id="grad2_2" x1="0%" y1="0%" x2="66.7%" y2="100%"><stop offset="20%" stop-color="#e1685e" stop-opacity="1"></stop><stop offset="80%" stop-color="#96446e" stop-opacity="1"></stop></linearGradient></defs><defs><linearGradient id="grad2_3" x1="0%" y1="0%" x2="66.7%" y2="100%"><stop offset="20%" stop-color="#3d3056" stop-opacity="1"></stop><stop offset="80%" stop-color="#96446e" stop-opacity="1"></stop></linearGradient></defs><defs><linearGradient id="grad2_4" x1="0%" y1="0%" x2="66.7%" y2="100%"><stop offset="20%" stop-color="#3d3056" stop-opacity="1"></stop><stop offset="80%" stop-color="#001220" stop-opacity="1"></stop></linearGradient></defs><g transform="translate(900, 0)"><path d="M0 486.7C-63.4 480.7 -126.8 474.7 -186.3 449.7C-245.7 424.7 -301.1 380.6 -326.7 326.7C-352.2 272.8 -347.9 209.2 -369.6 153.1C-391.2 97 -439 48.5 -486.7 0L0 0Z" fill="#18223c"></path><path d="M0 389.4C-50.7 384.6 -101.5 379.8 -149 359.8C-196.6 339.7 -240.9 304.4 -261.3 261.3C-281.8 218.2 -278.3 167.3 -295.6 122.5C-313 77.6 -351.2 38.8 -389.4 0L0 0Z" fill="#683a67"></path><path d="M0 292C-38.1 288.4 -76.1 284.8 -111.8 269.8C-147.4 254.8 -180.7 228.3 -196 196C-211.3 163.7 -208.7 125.5 -221.7 91.8C-234.7 58.2 -263.4 29.1 -292 0L0 0Z" fill="#c0526a"></path><path d="M0 194.7C-25.4 192.3 -50.7 189.9 -74.5 179.9C-98.3 169.9 -120.5 152.2 -130.7 130.7C-140.9 109.1 -139.1 83.7 -147.8 61.2C-156.5 38.8 -175.6 19.4 -194.7 0L0 0Z" fill="#f6884d"></path><path d="M0 97.3C-12.7 96.1 -25.4 94.9 -37.3 89.9C-49.1 84.9 -60.2 76.1 -65.3 65.3C-70.4 54.6 -69.6 41.8 -73.9 30.6C-78.2 19.4 -87.8 9.7 -97.3 0L0 0Z" fill="#fbae3c"></path></g><g transform="translate(0, 600)"><path d="M0 -486.7C42.1 -432.4 84.3 -378.1 150.8 -364C217.3 -349.9 308.2 -376 344.2 -344.2C380.2 -312.4 361.4 -222.8 376 -155.8C390.6 -88.7 438.7 -44.4 486.7 0L0 0Z" fill="#18223c"></path><path d="M0 -389.4C33.7 -346 67.4 -302.5 120.6 -291.2C173.8 -279.9 246.5 -300.8 275.3 -275.3C304.2 -249.9 289.1 -178.2 300.8 -124.6C312.5 -71 351 -35.5 389.4 0L0 0Z" fill="#683a67"></path><path d="M0 -292C25.3 -259.5 50.6 -226.9 90.5 -218.4C130.4 -209.9 184.9 -225.6 206.5 -206.5C228.1 -187.4 216.8 -133.7 225.6 -93.5C234.4 -53.2 263.2 -26.6 292 0L0 0Z" fill="#c0526a"></path><path d="M0 -194.7C16.9 -173 33.7 -151.3 60.3 -145.6C86.9 -140 123.3 -150.4 137.7 -137.7C152.1 -125 144.6 -89.1 150.4 -62.3C156.3 -35.5 175.5 -17.7 194.7 0L0 0Z" fill="#f6884d"></path><path d="M0 -97.3C8.4 -86.5 16.9 -75.6 30.2 -72.8C43.5 -70 61.6 -75.2 68.8 -68.8C76 -62.5 72.3 -44.6 75.2 -31.2C78.1 -17.7 87.7 -8.9 97.3 0L0 0Z" fill="#fbae3c"></path></g></svg>